<svg width="567" height="208" viewBox="0 0 567 208" fill="none" xmlns="http://www.w3.org/2000/svg">
<path d="M15 170.278L69.5498 40.6161H70.5856L124.963 170.278H105.801L65.0615 66.7895L76.9727 59.0408L31.3995 170.278H15ZM46.9358 123.097H93.3722L98.8962 137.561H42.1023L46.9358 123.097Z" fill="#535353"/>
<path d="M144.499 37H160.553V170.278H144.499V37Z" fill="#535353"/>
<path d="M221.474 172C213.303 172 206.283 170.393 200.414 167.179C194.544 163.849 189.999 159.372 186.776 153.747C183.669 148.008 182.115 141.464 182.115 134.117C182.115 127.115 183.899 120.744 187.467 115.004C191.034 109.264 195.81 104.672 201.795 101.228C207.779 97.7844 214.454 96.0625 221.819 96.0625C231.256 96.0625 239.082 98.8176 245.296 104.328C251.511 109.838 255.712 117.415 257.898 127.057L199.033 147.721L195.235 138.25L243.57 120.686L240.118 122.925C238.737 119.136 236.435 115.865 233.213 113.11C229.99 110.24 225.79 108.805 220.611 108.805C216.238 108.805 212.325 109.895 208.872 112.077C205.42 114.143 202.715 117.013 200.759 120.686C198.803 124.36 197.824 128.55 197.824 133.256C197.824 138.193 198.86 142.555 200.932 146.343C203.003 150.017 205.823 152.944 209.39 155.125C213.073 157.191 217.216 158.224 221.819 158.224C224.927 158.224 227.919 157.65 230.796 156.503C233.788 155.355 236.55 153.862 239.082 152.026L246.505 163.907C242.937 166.318 238.909 168.269 234.421 169.761C230.048 171.254 225.732 172 221.474 172Z" fill="#535353"/>
<path d="M302.921 125.508L320.011 98.9898H336.238L308.79 137.217L302.921 125.508ZM339 170.278H319.666L265.289 98.9898H285.141L339 170.278ZM301.195 143.76L282.379 170.278H266.152L293.427 133.084L301.195 143.76Z" fill="#535353"/>
<path fill-rule="evenodd" clip-rule="evenodd" d="M551.088 97.4264C547.937 49.1673 507.795 11 458.739 11C426.147 11 397.49 27.847 381.001 53.3076C385.305 50.026 390.029 47.4747 395.174 45.6537C402.224 43.1941 409.581 41.9643 417.244 41.9643C424.499 41.9643 431.14 42.7842 437.169 44.4239C443.197 45.9612 448.306 47.9083 452.496 50.2654L445.292 71.0181C443.453 69.9933 441.001 68.9685 437.935 67.9436C434.87 66.9188 431.753 66.099 428.586 65.4841C425.418 64.7667 422.608 64.408 420.156 64.408C414.025 64.408 408.61 65.1766 403.91 66.7139C399.21 68.2511 395.225 70.5569 391.955 73.6314C388.787 76.7059 386.386 80.549 384.751 85.1607C383.116 89.6699 382.299 94.9478 382.299 100.994C382.299 106.323 383.219 111.14 385.058 115.444C386.897 119.646 389.452 123.233 392.721 126.205C396.093 129.177 400.027 131.432 404.523 132.969C409.121 134.506 414.179 135.275 419.696 135.275C422.864 135.275 425.776 135.07 428.433 134.66C431.089 134.147 433.337 133.379 435.176 132.354V118.672H415.711V97.1511H457.707V144.959C456.378 146.394 454.284 147.88 451.423 149.417C448.562 150.852 445.241 152.184 441.46 153.414C437.782 154.644 434.001 155.617 430.119 156.335C426.236 157.155 422.557 157.565 419.083 157.565C409.887 157.565 401.611 156.232 394.254 153.568C386.897 150.801 380.613 147.009 375.402 142.192C374.924 141.741 374.457 141.283 374 140.818C388.338 173.371 420.884 196.098 458.739 196.098C490.564 196.098 518.638 180.034 535.293 155.572V116.616C535.198 113.834 534.431 111.628 532.994 109.997C531.652 108.27 529.352 107.407 526.094 107.407C523.028 107.407 520.345 108.414 518.045 110.429C515.745 112.443 513.973 115.177 512.727 118.631C511.481 122.084 510.858 126.066 510.858 130.574V156.188H490.735V42.6524H510.427V103.268C512.622 99.4522 515.688 96.3708 519.626 94.0242C523.651 91.5299 528.586 90.2828 534.431 90.2828C540.372 90.2828 545.307 92.0575 549.236 95.607C549.908 96.1841 550.526 96.7905 551.088 97.4264ZM471.872 55.2852C472.82 54.8532 473.563 53.9912 474.103 52.6994C475.11 50.3491 475.741 48.1845 475.997 46.2056C476.299 44.1421 476.335 42.2662 476.104 40.5777C475.92 38.8047 475.59 37.1466 475.116 35.6034C474.246 32.7741 472.926 30.8223 471.155 29.748C469.364 28.6094 467.317 28.3942 465.013 29.1023C462.775 29.7902 461.205 31.0116 460.304 32.7665C459.383 34.4572 459.248 36.3635 459.9 38.4854C460.572 40.6717 461.797 42.1954 463.575 43.0565C465.172 43.7853 466.942 43.9324 468.885 43.4979C468.912 43.8779 468.929 44.2722 468.937 44.6809C468.97 46.4301 468.576 48.3107 467.753 50.3229C467.168 51.6993 467.056 52.8596 467.418 53.8039C467.761 54.6839 468.373 55.2698 469.255 55.5617C470.118 55.7892 470.99 55.6971 471.872 55.2852Z" fill="#535353"/>
</svg>
